<svg xmlns="http://www.w3.org/2000/svg" viewBox="0 0 256 256" role="img" aria-label="Share File icon">
  <defs>
    <linearGradient id="g" x1="0" x2="1" y1="0" y2="1">
      <stop offset="0" stop-color="#5eead4" />
      <stop offset="1" stop-color="#60a5fa" />
    </linearGradient>
  </defs>
  <rect width="256" height="256" rx="56" fill="#0b1020" />
  <path
    d="M72 164c0 11 9 20 20 20h72c23 0 42-19 42-42 0-21-16-39-36-42-6-30-32-52-64-52-33 0-60 24-65 56-18 2-33 18-33 37 0 21 17 38 38 38h4"
    fill="none"
    stroke="url(#g)"
    stroke-width="16"
    stroke-linecap="round"
    stroke-linejoin="round"
  />
  <path
    d="M128 120v56m0-56-18 18m18-18 18 18"
    fill="none"
    stroke="url(#g)"
    stroke-width="16"
    stroke-linecap="round"
    stroke-linejoin="round"
  />
</svg>
